<svg width="24" height="24" viewBox="0 0 24 24" fill="none" xmlns="http://www.w3.org/2000/svg">
<path d="M10.75 3.75H12.75M18.75 10.75C18.0833 16.0833 16.4167 18.75 13.75 18.75H9.75C7.08333 18.75 5.41667 16.0833 4.75 10.75" stroke="#2680C2" stroke-width="2" stroke-linecap="round" stroke-linejoin="round"/>
<path d="M11.75 16.75V18.75M9.75 9.75V9.76M13.75 9.75V9.76M10.75 14.75C10.75 15.4167 11.0833 15.75 11.75 15.75C12.75 15.75 12.75 15.417 12.75 14.75H10.75ZM4.75 2.75L10.75 3.72L4.51187 10.408C4.33677 10.6052 4.09212 10.7269 3.82923 10.7476C3.56634 10.7683 3.30566 10.6864 3.10187 10.519C2.96331 10.4067 2.85916 10.2577 2.80133 10.089C2.7435 9.92026 2.73433 9.73868 2.77487 9.565L4.75 2.75ZM18.75 2.75L12.75 3.72L18.9879 10.408C19.3459 10.816 19.9769 10.866 20.3979 10.519C20.5364 10.4067 20.6406 10.2577 20.6984 10.089C20.7562 9.92026 20.7654 9.73868 20.7249 9.565L18.75 2.75Z" stroke="#2680C2" stroke-width="2" stroke-linecap="round" stroke-linejoin="round"/>
</svg>
