<svg width="24" height="24" viewBox="0 0 24 24" fill="none" xmlns="http://www.w3.org/2000/svg">
<path d="M8.6532 13.142H10.3932V17.192C10.3932 17.792 11.1332 18.072 11.5332 17.622L15.7932 12.782C16.1632 12.362 15.8632 11.702 15.3032 11.702H13.5632V7.65195C13.5632 7.05195 12.8232 6.77195 12.4232 7.22195L8.1632 12.062C7.7932 12.482 8.0932 13.142 8.6532 13.142Z" stroke="#2680C2" stroke-width="2" stroke-miterlimit="10" stroke-linecap="round" stroke-linejoin="round"/>
<path d="M11.9688 22C17.4916 22 21.9688 17.5228 21.9688 12C21.9688 6.47715 17.4916 2 11.9688 2C6.4459 2 1.96875 6.47715 1.96875 12C1.96875 17.5228 6.4459 22 11.9688 22Z" stroke="#2680C2" stroke-width="2" stroke-miterlimit="10" stroke-linecap="round" stroke-linejoin="round"/>
</svg>
