<svg width="20" height="18" viewBox="0 0 20 18" fill="none" xmlns="http://www.w3.org/2000/svg">
<path d="M9.74987 14.75V16.75M7.74987 7.75V7.76M11.7499 7.75V7.76M8.74987 12.75C8.74987 13.4167 9.0832 13.75 9.74987 13.75C10.7499 13.75 10.7499 13.417 10.7499 12.75H8.74987ZM2.74987 0.75L8.74987 1.72L2.51187 8.408C2.33677 8.60518 2.09212 8.72688 1.82923 8.74757C1.56634 8.76827 1.30566 8.68635 1.10187 8.519C0.963308 8.40671 0.859155 8.25768 0.801327 8.08897C0.743498 7.92026 0.734328 7.73868 0.774867 7.565L2.74987 0.75ZM16.7499 0.75L10.7499 1.72L16.9879 8.408C17.3459 8.816 17.9769 8.866 18.3979 8.519C18.5364 8.40671 18.6406 8.25768 18.6984 8.08897C18.7562 7.92026 18.7654 7.73868 18.7249 7.565L16.7499 0.75Z" stroke="white" stroke-width="1.5" stroke-linecap="round" stroke-linejoin="round"/>
</svg>
